# xmcd
#
# Track frame offsets: 
#        150
#        6987
#        22600
#        42579
#        61537
#        72459
#        90751
#        102720
#        117106
#        135110
#        151671
#        175556
#        192631
#        205164
#        219642
#        237676
#        268151
#        283093
#        304701
#        320921
#        342696
#
# Disc length: 4642 seconds
#
# Revision: 0
# Processed by: cddbd v1.5.2PL0 Copyright (c) Steve Scherf et al.
# Submitted via: ExactAudioCopy v0.95b3
#
DISCID=31122015
DTITLE=K.D Lok - Product of a Dying Breed
DYEAR=2006
DGENRE=Hip-Hop
TTITLE0=Intro
TTITLE1=I Stand
TTITLE2=Thinkin Bout My Girl
TTITLE3=Blown Away
TTITLE4=Strictly Thinkin 2006
TTITLE5=Behind Closed Doors
TTITLE6=Glass Pipe
TTITLE7=In The Mood
TTITLE8=No More
TTITLE9=Roll With Me
TTITLE10=Mama
TTITLE11=The Good Times
TTITLE12=Snake King
TTITLE13=Struggle To Survive
TTITLE14=Smokin' Blunts
TTITLE15=Product of a Dying Breed
TTITLE16=Molly Wop
TTITLE17=My Life
TTITLE18=Cant Call It
TTITLE19=Goin Crazy
TTITLE20=Lokin Outro
EXTD=
EXTT0=
EXTT1=
EXTT2=
EXTT3=
EXTT4=
EXTT5=
EXTT6=
EXTT7=
EXTT8=
EXTT9=
EXTT10=
EXTT11=
EXTT12=
EXTT13=
EXTT14=
EXTT15=
EXTT16=
EXTT17=
EXTT18=
EXTT19=
EXTT20=
PLAYORDER=
